# xmcd CD database file
#
# Track frame offsets:
#	150
#	33389
#	52052
#	66419
#	86998
#	114689
#	134316
#	150637
#	167111
#	187163
#	212527
#
# Disc length: 3107 seconds
#
# Revision: 0
# Processed by: cddbd v1.5.2PL0 Copyright (c) Steve Scherf et al.
# Submitted via: CDex 1.70beta2
#
DISCID=a50c210b
DTITLE=Tony Parenti - Happy Jazz
DYEAR=1955
DGENRE=Jazz
TTITLE0=In The Good Old Summertime
TTITLE1=Frankie And Johnny
TTITLE2=Tony's Rag
TTITLE3=Maple Leaf Rag
TTITLE4=Maryland My Maryland
TTITLE5=Bill Bailey
TTITLE6=The Blues
TTITLE7=Vieux Carré
TTITLE8=City Of The Blues
TTITLE9=Careless Love
TTITLE10=I've Been Working On The Railroad
EXTD=YEAR: 1955
EXTT0=
EXTT1=
EXTT2=
EXTT3=
EXTT4=
EXTT5=
EXTT6=
EXTT7=
EXTT8=
EXTT9=
EXTT10=
PLAYORDER=
